# xmcd
#
# Track frame offsets:
#	182
#	23637
#	40895
#	64125
#	84027
#	106962
#	124945
#	140935
#	161712
#	179357
#
# Disc length: 2645 seconds
#
# Revision: 1
# Processed by: cddbd v1.5.2PL0 Copyright (c) Steve Scherf et al.
# Submitted via: audiograbber 1.83.01
#
DISCID=840a530a
DTITLE=Yolandita Monge - Cara De Angel
DYEAR=1992
DGENRE=Latin
TTITLE0=Sobrevivire
TTITLE1=Un Dia Feliz
TTITLE2=Podras Decir Te Amo
TTITLE3=Vivire Sin Ti
TTITLE4=Entrega Total
TTITLE5=Angel Caido
TTITLE6=Cualquiera No
TTITLE7=Cara De Angel
TTITLE8=Salte De Mi Vida
TTITLE9=Entre Mil Pasos
EXTD=
EXTT0=
EXTT1=
EXTT2=
EXTT3=
EXTT4=
EXTT5=
EXTT6=
EXTT7=
EXTT8=
EXTT9=
PLAYORDER=
